<svg width="154" height="118" viewBox="0 0 154 118" fill="none" xmlns="http://www.w3.org/2000/svg">
<path d="M76.0592 111.58C106.485 111.58 131.111 86.8083 131.111 56.2452C131.111 25.6821 106.485 1 76.0592 1C45.723 1 21.0078 25.7712 21.0078 56.3343C21.0078 86.8974 45.723 111.58 76.0592 111.58Z" fill="#F1F3FA" stroke="#D6DDE8" stroke-width="2" stroke-miterlimit="10"/>
<path d="M1 111.847H152.018" stroke="#D6DDE8" stroke-width="2" stroke-miterlimit="10" stroke-linecap="round" stroke-linejoin="round"/>
<path d="M14.4053 49.6515C16.4574 49.6515 18.0635 48.0476 18.0635 45.9982C18.0635 43.9487 16.4574 42.3448 14.4053 42.3448C12.3531 42.3448 10.7471 43.9487 10.7471 45.9982C10.7471 48.0476 12.4423 49.6515 14.4053 49.6515Z" fill="#F1F3FA"/>
<path d="M10.7468 37.8004C12.0852 37.8004 13.2451 36.642 13.2451 35.3054C13.2451 33.9689 12.0852 32.8105 10.7468 32.8105C9.40845 32.8105 8.24854 33.9689 8.24854 35.3054C8.24854 36.7311 9.40845 37.8004 10.7468 37.8004Z" fill="#F1F3FA"/>
<path d="M141.639 58.8293C144.227 58.8293 146.279 56.7798 146.279 54.1958C146.279 51.6117 144.227 49.5623 141.639 49.5623C139.052 49.5623 137 51.6117 137 54.1958C137 56.7798 139.052 58.8293 141.639 58.8293Z" fill="#F1F3FA"/>
<path d="M131.378 102.56H141.536C141.536 107.543 137.607 111.568 132.911 111.664C132.911 111.664 132.816 111.664 132.72 111.664H102.054V102.656H125.341L131.378 102.56Z" fill="white" stroke="#D6DCE8" stroke-width="2" stroke-miterlimit="10" stroke-linejoin="round"/>
<path d="M128.791 109.46C128.695 109.364 128.599 109.268 128.504 109.076C127.449 107.831 126.683 106.106 126.683 104.381V50.6202C126.587 45.637 122.85 41.708 118.058 41.6122C118.058 41.6122 117.962 41.6122 117.866 41.6122H87.2967V50.6202H74.8389V103.806C74.9347 105.626 75.7013 107.351 76.7555 108.501C80.7803 112.622 77.1388 111.664 81.7386 111.664H133.487C131.666 111.568 130.037 110.705 128.791 109.46Z" fill="#F1F3F9" stroke="#D6DCE8" stroke-width="2" stroke-miterlimit="10"/>
<path d="M118.154 41.6122C116.429 41.6122 114.8 42.6663 113.746 43.9121C112.692 45.2537 111.829 47.9369 111.829 49.6619V102.847C111.829 107.926 107.804 111.951 102.917 111.951H60.0811V48.3203C60.1769 46.4995 60.9435 44.7746 61.9976 43.6246C63.3393 42.283 64.5851 41.6122 66.5016 41.6122L110.2 41.5164L117.866 41.6122C118.058 41.6122 118.058 41.6122 118.154 41.6122Z" fill="white" stroke="#D6DCE8" stroke-width="2" stroke-miterlimit="10" stroke-linejoin="round"/>
<path d="M87.4881 20.9131C85.6673 21.0089 84.0382 21.8714 82.7925 23.0213C82.6966 23.1172 82.6008 23.213 82.505 23.4047C81.4508 24.6504 80.5884 26.4712 80.5884 28.1961V60.2033H28.8403V27.8128C28.9362 25.9921 29.7028 24.2671 30.7569 23.1172C32.0985 21.7756 33.8235 20.9131 35.8359 20.9131H87.4881Z" fill="#E7EBF0"/>
<path d="M97.6461 109.843C96.3045 108.501 95.6337 106.681 95.6337 104.764L95.5378 30.1127C95.5378 25.1296 91.7047 21.1047 86.9132 21.0089C86.9132 21.0089 86.8173 21.0089 86.7215 21.0089H86.3382H86.1465H56.056H54.1394V30.1127H43.5981V53.2077H44.4606V104.764C44.4606 106.776 45.3231 108.693 46.473 109.843C47.7188 111.28 49.5396 111.951 51.3603 111.951H102.533C100.617 111.951 98.7961 110.993 97.6461 109.843Z" fill="#F1F3F9" stroke="#D6DCE8" stroke-width="2" stroke-miterlimit="10"/>
<path d="M86.8175 20.9131C84.9009 21.0089 83.1759 21.7756 81.9301 23.1172C81.8343 23.213 81.7385 23.3088 81.5468 23.5005C80.3969 24.8421 79.6302 26.4712 79.6302 28.3878V102.752C79.6302 107.926 75.5096 112.047 70.4306 112.047H25.3906V27.9087C25.4865 25.9921 26.2531 24.2671 27.4989 23.0213C28.8405 21.7756 30.6613 20.9131 32.6737 20.9131H77.9053H86.53C86.6258 20.9131 86.7216 20.9131 86.8175 20.9131Z" fill="white" stroke="#D6DCE8" stroke-width="2" stroke-miterlimit="10" stroke-linejoin="round"/>
<path d="M70.4305 33.5626H57.0143C56.5352 33.5626 56.1519 33.1793 56.1519 32.7001C56.1519 32.221 56.5352 31.8376 57.0143 31.8376H70.3347C70.8138 31.8376 71.1971 32.221 71.1971 32.7001C71.2929 33.1793 70.9096 33.5626 70.4305 33.5626Z" fill="#AAB2C5"/>
<path d="M50.7854 33.5626H33.3444C32.8653 33.5626 32.4819 33.1793 32.4819 32.7001C32.4819 32.221 32.8653 31.8376 33.3444 31.8376H50.7854C51.2646 31.8376 51.6479 32.221 51.6479 32.7001C51.6479 33.1793 51.2646 33.5626 50.7854 33.5626Z" fill="#D6DCE8"/>
<path d="M61.9015 42.2832H44.5563C44.0772 42.2832 43.6938 41.8998 43.6938 41.4207C43.6938 40.9415 44.0772 40.5582 44.5563 40.5582H61.9015C62.3806 40.5582 62.764 40.9415 62.764 41.4207C62.8598 41.8998 62.4765 42.2832 61.9015 42.2832Z" fill="#AAB2C5"/>
<path d="M38.9984 42.2832H33.3444C32.8653 42.2832 32.4819 41.8998 32.4819 41.4207C32.4819 40.9415 32.8653 40.5582 33.3444 40.5582H38.9984C39.4775 40.5582 39.8608 40.9415 39.8608 41.4207C39.8608 41.8998 39.4775 42.2832 38.9984 42.2832Z" fill="#D6DCE8"/>
<path d="M70.4307 51.0035H59.7936C59.3145 51.0035 58.9312 50.6202 58.9312 50.141C58.9312 49.6619 59.3145 49.2786 59.7936 49.2786H70.4307C70.9099 49.2786 71.2932 49.6619 71.2932 50.141C71.2932 50.6202 70.9099 51.0035 70.4307 51.0035Z" fill="#D6DCE8"/>
<path d="M54.6186 51.0035H33.3444C32.8653 51.0035 32.4819 50.6202 32.4819 50.141C32.4819 49.6619 32.8653 49.2786 33.3444 49.2786H54.6186C55.0977 49.2786 55.4811 49.6619 55.4811 50.141C55.4811 50.6202 55.1936 51.0035 54.6186 51.0035Z" fill="#AAB2C5"/>
<path d="M61.9018 59.82H50.2106C49.7315 59.82 49.3481 59.4367 49.3481 58.9576C49.3481 58.4784 49.7315 58.0951 50.2106 58.0951H61.9018C62.381 58.0951 62.7643 58.4784 62.7643 58.9576C62.8601 59.3409 62.4768 59.82 61.9018 59.82Z" fill="#AAB2C5"/>
<path d="M45.1315 59.82H33.3444C32.8653 59.82 32.4819 59.4367 32.4819 58.9576C32.4819 58.4784 32.8653 58.0951 33.3444 58.0951H45.1315C45.6106 58.0951 45.9939 58.4784 45.9939 58.9576C45.9939 59.4367 45.6106 59.82 45.1315 59.82Z" fill="#D6DCE8"/>
<path d="M70.4308 68.5404H62.2853C61.8062 68.5404 61.4229 68.157 61.4229 67.6779C61.4229 67.1987 61.8062 66.8154 62.2853 66.8154H70.4308C70.91 66.8154 71.2933 67.1987 71.2933 67.6779C71.2933 68.157 70.91 68.5404 70.4308 68.5404Z" fill="#AAB2C5"/>
<path d="M56.9187 68.5404H43.215C42.7359 68.5404 42.3525 68.157 42.3525 67.6779C42.3525 67.1987 42.7359 66.8154 43.215 66.8154H56.9187C57.3978 66.8154 57.7811 67.1987 57.7811 67.6779C57.7811 68.157 57.3978 68.5404 56.9187 68.5404Z" fill="#D6DCE8"/>
<path d="M38.1359 68.5404H33.3444C32.8653 68.5404 32.4819 68.157 32.4819 67.6779C32.4819 67.1987 32.8653 66.8154 33.3444 66.8154H38.1359C38.615 66.8154 38.9984 67.1987 38.9984 67.6779C38.9984 68.157 38.5192 68.5404 38.1359 68.5404Z" fill="#AAB2C5"/>
<path d="M70.4307 86.1732H59.7936C59.3145 86.1732 58.9312 85.7899 58.9312 85.3107C58.9312 84.8316 59.3145 84.4482 59.7936 84.4482H70.4307C70.9099 84.4482 71.2932 84.8316 71.2932 85.3107C71.2932 85.7899 70.9099 86.1732 70.4307 86.1732Z" fill="#D6DCE8"/>
<path d="M54.6186 86.1732H33.3444C32.8653 86.1732 32.4819 85.7899 32.4819 85.3107C32.4819 84.8316 32.8653 84.4482 33.3444 84.4482H54.6186C55.0977 84.4482 55.4811 84.8316 55.4811 85.3107C55.4811 85.7899 55.1936 86.1732 54.6186 86.1732Z" fill="#AAB2C5"/>
<path d="M61.9018 94.9895H50.2106C49.7315 94.9895 49.3481 94.6061 49.3481 94.127C49.3481 93.6478 49.7315 93.2645 50.2106 93.2645H61.9018C62.381 93.2645 62.7643 93.6478 62.7643 94.127C62.8601 94.5103 62.4768 94.9895 61.9018 94.9895Z" fill="#AAB2C5"/>
<path d="M45.1315 94.9895H33.3444C32.8653 94.9895 32.4819 94.6061 32.4819 94.127C32.4819 93.6478 32.8653 93.2645 33.3444 93.2645H45.1315C45.6106 93.2645 45.9939 93.6478 45.9939 94.127C45.9939 94.5103 45.6106 94.9895 45.1315 94.9895Z" fill="#D6DCE8"/>
<path d="M61.9015 77.2608H53.756C53.2769 77.2608 52.8936 76.8775 52.8936 76.3984C52.8936 75.9192 53.2769 75.5359 53.756 75.5359H61.9015C62.3807 75.5359 62.764 75.9192 62.764 76.3984C62.8598 76.8775 62.4765 77.2608 61.9015 77.2608Z" fill="#AAB2C5"/>
<path d="M48.4855 77.2608H33.3444C32.8653 77.2608 32.4819 76.8775 32.4819 76.3984C32.4819 75.9192 32.8653 75.5359 33.3444 75.5359H48.4855C48.9646 75.5359 49.348 75.9192 49.348 76.3984C49.348 76.8775 48.9646 77.2608 48.4855 77.2608Z" fill="#D6DCE8"/>
<path d="M50.3064 104.668H62.1893C62.1893 106.681 63.0517 108.502 64.2975 109.843C65.6391 111.185 67.4599 111.951 69.3765 111.951H15.9994C13.9869 111.951 12.1662 111.089 10.9204 109.843C9.57878 108.502 8.71631 106.681 8.71631 104.668H43.8858C43.8858 104.668 50.4981 104.668 50.3064 104.668Z" fill="#F1F3F9" stroke="#D6DCE8" stroke-width="2" stroke-miterlimit="10"/>
<path d="M71.7591 98.3073C66.2563 88.6188 66.7393 84.7616 67.5444 81.5922C68.9669 82.2622 70.0343 82.879 70.0343 82.879C69.7853 82.7503 70.0973 80.6951 70.1322 80.5176C70.3729 78.3604 70.5787 76.3807 70.997 74.2501C73.3722 63.5481 80.6509 53.946 89.1099 46.7139C90.7382 45.4042 92.3666 44.0945 94.0315 43.0644C94.8814 42.4606 95.8027 41.9588 96.6525 41.355C96.865 41.2041 99.2038 40.0007 99.0611 39.7966C99.3102 49.7035 99.5078 55.2163 102.683 59.53C99.883 60.7556 98.5003 61.2796 95.021 61.3069C100.253 64.9234 101.883 64.0709 101.883 64.0709C101.883 64.0709 101.312 73.0325 87.3375 86.4753C89.7577 88.1172 90.503 88.046 90.503 88.046C90.503 88.046 82.0906 98.3008 73.605 98.2181C71.7591 98.3073 71.7591 98.3073 71.7591 98.3073Z" fill="white" stroke="#C5CCDA" stroke-width="2" stroke-miterlimit="10" stroke-linejoin="round"/>
<path d="M70.1403 112.227C71.6173 98.6508 72.5432 79.9669 82.5279 63.0963C92.5474 46.0483 100.718 37.9519 100.718 37.9519L99.9796 39.8515C99.9796 39.8515 88.1675 52.0625 81.099 70.3749C74.0653 88.5096 73.687 101.611 73.0066 109.732C70.1403 112.227 70.1403 112.227 70.1403 112.227Z" fill="#D6DCE8" stroke="#C5CCDA" stroke-width="2" stroke-miterlimit="10" stroke-linejoin="round"/>
</svg>
